<svg width="26" height="26" viewBox="0 0 26 26" fill="none" xmlns="http://www.w3.org/2000/svg">
<path d="M17.875 3.25C15.99 3.25 14.1808 4.1275 13 5.51417C11.8192 4.1275 10.01 3.25 8.125 3.25C4.78833 3.25 2.16666 5.87167 2.16666 9.20833C2.16666 13.3033 5.85 16.64 11.4292 21.71L13 23.1292L14.5708 21.6992C20.15 16.64 23.8333 13.3033 23.8333 9.20833C23.8333 5.87167 21.2117 3.25 17.875 3.25ZM13.1083 20.0958L13 20.2042L12.8917 20.0958C7.735 15.4267 4.33333 12.3392 4.33333 9.20833C4.33333 7.04167 5.95833 5.41667 8.125 5.41667C9.79333 5.41667 11.4183 6.48917 11.9925 7.97333H14.0183C14.5817 6.48917 16.2067 5.41667 17.875 5.41667C20.0417 5.41667 21.6667 7.04167 21.6667 9.20833C21.6667 12.3392 18.265 15.4267 13.1083 20.0958Z" fill="#7A7A7A"/>
</svg>
